<!-- Generator: Adobe Illustrator 19.0.0, SVG Export Plug-In  -->
<svg version="1.1"
	 xmlns="http://www.w3.org/2000/svg" xmlns:xlink="http://www.w3.org/1999/xlink" xmlns:a="http://ns.adobe.com/AdobeSVGViewerExtensions/3.0/"
	 x="0px" y="0px" width="100px" height="100px" viewBox="0 0 100 100" style="enable-background:new 0 0 100 100;"
	 xml:space="preserve">
<style type="text/css">
	.st0{fill:#235B9E;}
	.st1{fill:#FFFFFF;}
</style>
<defs>
</defs>
<g id="XMLID_15_">
	<path id="XMLID_22_" class="st0" d="M100,50c0,27.6-22.4,50-50,50C22.4,100,0,77.6,0,50C0,22.4,22.4,0,50,0C77.6,0,100,22.4,100,50
		z"/>
	<g id="XMLID_20_">
		<path id="XMLID_21_" class="st1" d="M41.7,81.2h12.5c0,0,0-17.3,0-31.2h9.3l1.1-12.5h-9.9v-5c0-2.4,1.6-3,2.8-3c1.1,0,7,0,7,0
			V18.8l-9.7,0c-10.7,0-13.2,8-13.2,13.1v5.6h-6.2V50h6.2C41.7,64.2,41.7,81.2,41.7,81.2z"/>
	</g>
	<g id="XMLID_18_">
		<path id="XMLID_19_" class="st1" d="M41.7,81.2h12.5c0,0,0-17.3,0-31.2h9.3l1.1-12.5h-9.9v-5c0-2.4,1.6-3,2.8-3c1.1,0,7,0,7,0
			V18.8l-9.7,0c-10.7,0-13.2,8-13.2,13.1v5.6h-6.2V50h6.2C41.7,64.2,41.7,81.2,41.7,81.2z"/>
	</g>
	<g id="XMLID_16_">
		<path id="XMLID_17_" class="st1" d="M41.7,81.2h12.5c0,0,0-17.3,0-31.2h9.3l1.1-12.5h-9.9v-5c0-2.4,1.6-3,2.8-3c1.1,0,7,0,7,0
			V18.8l-9.7,0c-10.7,0-13.2,8-13.2,13.1v5.6h-6.2V50h6.2C41.7,64.2,41.7,81.2,41.7,81.2z"/>
	</g>
</g>
</svg>
