<!-- Generator: Adobe Illustrator 19.0.0, SVG Export Plug-In  -->
<svg version="1.1"
	 xmlns="http://www.w3.org/2000/svg" xmlns:xlink="http://www.w3.org/1999/xlink" xmlns:a="http://ns.adobe.com/AdobeSVGViewerExtensions/3.0/"
	 x="0px" y="0px" width="100px" height="100px" viewBox="0 0 100 100" style="enable-background:new 0 0 100 100;"
	 xml:space="preserve">
<style type="text/css">
	.st0{fill:#FF3A21;}
	.st1{fill:#FFFFFF;}
</style>
<defs>
</defs>
<g id="XMLID_22_">
	<circle id="XMLID_41_" class="st0" cx="50" cy="50" r="50"/>
	<g id="XMLID_35_">
		<path id="XMLID_40_" class="st1" d="M66.5,60.8h2.7c0.7,0,1.3-0.6,1.3-1.3V50h9.4c0.7,0,1.3-0.6,1.3-1.3V46c0-0.7-0.6-1.3-1.3-1.3
			h-9.4v-9.4c0-0.7-0.6-1.3-1.3-1.3h-2.7c-0.7,0-1.3,0.6-1.3,1.3v9.4h-9.4c-0.7,0-1.3,0.6-1.3,1.3v2.7c0,0.7,0.6,1.3,1.3,1.3h9.4
			v9.4C65.2,60.2,65.8,60.8,66.5,60.8z"/>
		<path id="XMLID_36_" class="st1" d="M29.4,77.2c2.4,0.6,4.9,0.9,7.6,0.9c2.4,0,4.7-0.3,6.8-0.9c6.6-1.9,10.8-6.8,10.8-12.4
			c0-5.4-1.7-8.6-6.3-11.9c-2-1.4-3.8-3.5-3.8-4.1c0-1.2,0.1-1.7,2.7-3.7c3.3-2.6,5.2-6.1,5.2-9.7c0-3.3-1-6.2-2.7-8.3h1.3
			c0.3,0,0.5-0.1,0.8-0.2l3.7-2.7c0.5-0.3,0.7-0.9,0.5-1.5c-0.2-0.5-0.7-0.9-1.2-0.9H38.1c-1.8,0-3.7,0.3-5.5,0.9
			c-6,2.1-10.3,7.2-10.3,12.5c0,7.5,5.8,13.2,13.6,13.4c-0.2,0.6-0.2,1.2-0.2,1.8c0,1.2,0.3,2.3,0.9,3.3c-0.1,0-0.1,0-0.2,0
			c-7.4,0-14.1,3.6-16.6,9c-0.7,1.4-1,2.8-1,4.2c0,1.4,0.4,2.7,1,3.9C21.4,73.8,24.8,76,29.4,77.2z M30.9,35.2
			c-0.4-2.7,0.2-5.2,1.6-6.8c0.9-1,2-1.5,3.3-1.5l0.2,0c3.7,0.1,7.2,4.2,7.8,9.1c0.4,2.8-0.2,5.3-1.6,6.9c-0.9,1-2,1.5-3.4,1.5
			c0,0,0,0,0,0h-0.1C35.1,44.3,31.5,40.1,30.9,35.2z M37.9,57.9l0.2,0c1.2,0,2.4,0.2,3.6,0.5c0.4,0.3,0.8,0.5,1.1,0.8
			c2.6,1.8,4.3,3,4.8,4.9c0.1,0.5,0.2,0.9,0.2,1.4c0,4.9-3.6,7.3-10.8,7.3c-5.4,0-9.7-3.3-9.7-7.6C27.3,61.4,32.3,57.9,37.9,57.9z"
			/>
	</g>
	<g id="XMLID_29_">
		<path id="XMLID_34_" class="st1" d="M66.5,60.8h2.7c0.7,0,1.3-0.6,1.3-1.3V50h9.4c0.7,0,1.3-0.6,1.3-1.3V46c0-0.7-0.6-1.3-1.3-1.3
			h-9.4v-9.4c0-0.7-0.6-1.3-1.3-1.3h-2.7c-0.7,0-1.3,0.6-1.3,1.3v9.4h-9.4c-0.7,0-1.3,0.6-1.3,1.3v2.7c0,0.7,0.6,1.3,1.3,1.3h9.4
			v9.4C65.2,60.2,65.8,60.8,66.5,60.8z"/>
		<path id="XMLID_30_" class="st1" d="M29.4,77.2c2.4,0.6,4.9,0.9,7.6,0.9c2.4,0,4.7-0.3,6.8-0.9c6.6-1.9,10.8-6.8,10.8-12.4
			c0-5.4-1.7-8.6-6.3-11.9c-2-1.4-3.8-3.5-3.8-4.1c0-1.2,0.1-1.7,2.7-3.7c3.3-2.6,5.2-6.1,5.2-9.7c0-3.3-1-6.2-2.7-8.3h1.3
			c0.3,0,0.5-0.1,0.8-0.2l3.7-2.7c0.5-0.3,0.7-0.9,0.5-1.5c-0.2-0.5-0.7-0.9-1.2-0.9H38.1c-1.8,0-3.7,0.3-5.5,0.9
			c-6,2.1-10.3,7.2-10.3,12.5c0,7.5,5.8,13.2,13.6,13.4c-0.2,0.6-0.2,1.2-0.2,1.8c0,1.2,0.3,2.3,0.9,3.3c-0.1,0-0.1,0-0.2,0
			c-7.4,0-14.1,3.6-16.6,9c-0.7,1.4-1,2.8-1,4.2c0,1.4,0.4,2.7,1,3.9C21.4,73.8,24.8,76,29.4,77.2z M30.9,35.2
			c-0.4-2.7,0.2-5.2,1.6-6.8c0.9-1,2-1.5,3.3-1.5l0.2,0c3.7,0.1,7.2,4.2,7.8,9.1c0.4,2.8-0.2,5.3-1.6,6.9c-0.9,1-2,1.5-3.4,1.5
			c0,0,0,0,0,0h-0.1C35.1,44.3,31.5,40.1,30.9,35.2z M37.9,57.9l0.2,0c1.2,0,2.4,0.2,3.6,0.5c0.4,0.3,0.8,0.5,1.1,0.8
			c2.6,1.8,4.3,3,4.8,4.9c0.1,0.5,0.2,0.9,0.2,1.4c0,4.9-3.6,7.3-10.8,7.3c-5.4,0-9.7-3.3-9.7-7.6C27.3,61.4,32.3,57.9,37.9,57.9z"
			/>
	</g>
	<g id="XMLID_23_">
		<path id="XMLID_28_" class="st1" d="M66.5,60.8h2.7c0.7,0,1.3-0.6,1.3-1.3V50h9.4c0.7,0,1.3-0.6,1.3-1.3V46c0-0.7-0.6-1.3-1.3-1.3
			h-9.4v-9.4c0-0.7-0.6-1.3-1.3-1.3h-2.7c-0.7,0-1.3,0.6-1.3,1.3v9.4h-9.4c-0.7,0-1.3,0.6-1.3,1.3v2.7c0,0.7,0.6,1.3,1.3,1.3h9.4
			v9.4C65.2,60.2,65.8,60.8,66.5,60.8z"/>
		<path id="XMLID_24_" class="st1" d="M29.4,77.2c2.4,0.6,4.9,0.9,7.6,0.9c2.4,0,4.7-0.3,6.8-0.9c6.6-1.9,10.8-6.8,10.8-12.4
			c0-5.4-1.7-8.6-6.3-11.9c-2-1.4-3.8-3.5-3.8-4.1c0-1.2,0.1-1.7,2.7-3.7c3.3-2.6,5.2-6.1,5.2-9.7c0-3.3-1-6.2-2.7-8.3h1.3
			c0.3,0,0.5-0.1,0.8-0.2l3.7-2.7c0.5-0.3,0.7-0.9,0.5-1.5c-0.2-0.5-0.7-0.9-1.2-0.9H38.1c-1.8,0-3.7,0.3-5.5,0.9
			c-6,2.1-10.3,7.2-10.3,12.5c0,7.5,5.8,13.2,13.6,13.4c-0.2,0.6-0.2,1.2-0.2,1.8c0,1.2,0.3,2.3,0.9,3.3c-0.1,0-0.1,0-0.2,0
			c-7.4,0-14.1,3.6-16.6,9c-0.7,1.4-1,2.8-1,4.2c0,1.4,0.4,2.7,1,3.9C21.4,73.8,24.8,76,29.4,77.2z M30.9,35.2
			c-0.4-2.7,0.2-5.2,1.6-6.8c0.9-1,2-1.5,3.3-1.5l0.2,0c3.7,0.1,7.2,4.2,7.8,9.1c0.4,2.8-0.2,5.3-1.6,6.9c-0.9,1-2,1.5-3.4,1.5
			c0,0,0,0,0,0h-0.1C35.1,44.3,31.5,40.1,30.9,35.2z M37.9,57.9l0.2,0c1.2,0,2.4,0.2,3.6,0.5c0.4,0.3,0.8,0.5,1.1,0.8
			c2.6,1.8,4.3,3,4.8,4.9c0.1,0.5,0.2,0.9,0.2,1.4c0,4.9-3.6,7.3-10.8,7.3c-5.4,0-9.7-3.3-9.7-7.6C27.3,61.4,32.3,57.9,37.9,57.9z"
			/>
	</g>
</g>
</svg>
