<!-- Generator: Adobe Illustrator 19.0.0, SVG Export Plug-In  -->
<svg version="1.1"
	 xmlns="http://www.w3.org/2000/svg" xmlns:xlink="http://www.w3.org/1999/xlink" xmlns:a="http://ns.adobe.com/AdobeSVGViewerExtensions/3.0/"
	 x="0px" y="0px" width="100px" height="100px" viewBox="0 0 100 100" style="enable-background:new 0 0 100 100;"
	 xml:space="preserve">
<style type="text/css">
	.st0{fill:#FF5C00;}
	.st1{fill:#FFFFFF;}
</style>
<defs>
</defs>
<g id="XMLID_15_">
	<path id="XMLID_26_" class="st0" d="M100,50c0,27.6-22.4,50-50,50C22.4,100,0,77.6,0,50C0,22.4,22.4,0,50,0C77.6,0,100,22.4,100,50
		z"/>
	<g id="XMLID_16_">
		<path id="XMLID_25_" class="st1" d="M44.8,54.6c0-2.7-2.3-4.9-5-4.9c-2.8,0-5,2.2-5,4.9c0,2.7,2.3,4.9,5,4.9
			C42.6,59.5,44.8,57.3,44.8,54.6z"/>
		<path id="XMLID_24_" class="st1" d="M60.8,49.8c-2.8,0-5,2.2-5,4.9c0,2.7,2.3,4.9,5,4.9c2.8,0,5-2.2,5-4.9
			C65.9,51.9,63.6,49.8,60.8,49.8z"/>
		<path id="XMLID_18_" class="st1" d="M74.8,23.3c2.3,0,4.1,1.8,4.1,4c0,2.2-1.9,4-4.1,4c-2.3,0-4.1-1.8-4.1-4
			C70.7,25.1,72.5,23.3,74.8,23.3z M16.9,49.2c0-3,2.5-5.5,5.6-5.5c1.2,0,2.2,0.3,3.2,1c-3.2,2.4-5.6,5.4-6.8,8.6
			C17.7,52.3,16.9,50.8,16.9,49.2z M37.7,77.6c3.8,1,7.9,1.6,12.2,1.6c4.2,0,8.3-0.6,12-1.5l3.6-0.9c0-0.1,0-0.2,0-0.2
			C75.3,73,82,66.2,82,58.3c0-0.8-0.1-1.6-0.2-2.4c2.4-1.4,3.9-4,3.9-6.8c0-4.4-3.7-8-8.2-8c-2,0-3.9,0.7-5.4,2
			c-5.3-3.3-12.4-5.4-20.3-5.7l4.7-12.9l11.7,2.7c0,3.6,3,6.5,6.7,6.5c3.7,0,6.7-2.9,6.7-6.5c0-3.6-3-6.5-6.7-6.5
			c-2.8,0-5.2,1.7-6.2,4.1l-13.8-3.2L49,37.5c-8.2,0.1-15.6,2.3-21.1,5.7c-1.5-1.3-3.4-2-5.4-2c-4.5,0-8.2,3.6-8.2,8
			c0,2.7,1.4,5.2,3.8,6.7c-0.1,0.8-0.2,1.6-0.2,2.4c0,7.8,6.6,14.6,16.5,18.2L37.7,77.6z M49.9,76.7c-16.2,0-29.4-8.2-29.4-18.4
			C20.5,48.2,33.7,40,49.9,40c16.2,0,29.4,8.2,29.4,18.4C79.4,68.5,66.2,76.7,49.9,76.7z M77.4,43.8c3.1,0,5.6,2.5,5.6,5.5
			c0,1.6-0.8,3.1-2,4.2c-1.2-3.2-3.6-6.2-6.8-8.6C75.1,44.1,76.2,43.8,77.4,43.8z"/>
		<path id="XMLID_17_" class="st1" d="M60,66.2c0,0-3.1,3-10.1,3c-6.9,0-9.6-2.8-9.7-2.9c-0.5-0.5-1.3-0.6-1.8-0.1
			c-0.5,0.4-0.6,1.2-0.1,1.8c0.1,0.2,3.4,3.8,11.6,3.8c8.2,0,11.8-3.6,12-3.7c0.5-0.5,0.5-1.3,0-1.8C61.3,65.7,60.5,65.7,60,66.2z"
			/>
	</g>
</g>
</svg>
