<!-- Generator: Adobe Illustrator 19.0.0, SVG Export Plug-In  -->
<svg version="1.1"
	 xmlns="http://www.w3.org/2000/svg" xmlns:xlink="http://www.w3.org/1999/xlink" xmlns:a="http://ns.adobe.com/AdobeSVGViewerExtensions/3.0/"
	 x="0px" y="0px" width="100px" height="100px" viewBox="0 0 100 100" style="enable-background:new 0 0 100 100;"
	 xml:space="preserve">
<style type="text/css">
	.st0{fill:#FF4518;}
	.st1{fill:#FFFFFF;}
</style>
<defs>
</defs>
<g id="XMLID_15_">
	<path id="XMLID_25_" class="st0" d="M100,50c0,27.6-22.4,50-50,50C22.4,100,0,77.6,0,50C0,22.4,22.4,0,50,0C77.6,0,100,22.4,100,50
		z"/>
	<g id="XMLID_22_">
		<path id="XMLID_24_" class="st1" d="M46.2,59.5V40.5c0-1.7,0.6-3.8,3.8-3.8c3.2,0,4,2.1,4,3.8v3.6l3.8,2l5.9-2v-3.6
			c0-7.4-6-13.5-13.7-13.5c-7.7,0-13.7,6-13.7,13.5v18.9c0,1.7-1.1,3.9-3.9,3.9c-2.8,0-3.9-2.2-3.9-3.9V52h-9.7v7.4
			c0,7.4,6.3,13.5,14,13.5C40.4,72.9,46.2,66.9,46.2,59.5z"/>
		<path id="XMLID_23_" class="st1" d="M71.6,59.5c0,1.7-1.1,3.9-4,3.9c-2.9,0-4-2.1-4-3.9v-7.5l-5.8,2l-3.8-2v7.8
			c0,7.4,5.5,13.2,13.2,13.2c7.7,0,14-6,14-13.5v-7.5h-9.6V59.5z"/>
	</g>
	<g id="XMLID_19_">
		<path id="XMLID_21_" class="st1" d="M46.2,59.5V40.5c0-1.7,0.6-3.8,3.8-3.8c3.2,0,4,2.1,4,3.8v3.6l3.8,2l5.9-2v-3.6
			c0-7.4-6-13.5-13.7-13.5c-7.7,0-13.7,6-13.7,13.5v18.9c0,1.7-1.1,3.9-3.9,3.9c-2.8,0-3.9-2.2-3.9-3.9V52h-9.7v7.4
			c0,7.4,6.3,13.5,14,13.5C40.4,72.9,46.2,66.9,46.2,59.5z"/>
		<path id="XMLID_20_" class="st1" d="M71.6,59.5c0,1.7-1.1,3.9-4,3.9c-2.9,0-4-2.1-4-3.9v-7.5l-5.8,2l-3.8-2v7.8
			c0,7.4,5.5,13.2,13.2,13.2c7.7,0,14-6,14-13.5v-7.5h-9.6V59.5z"/>
	</g>
	<g id="XMLID_16_">
		<path id="XMLID_18_" class="st1" d="M46.2,59.5V40.5c0-1.7,0.6-3.8,3.8-3.8c3.2,0,4,2.1,4,3.8v3.6l3.8,2l5.9-2v-3.6
			c0-7.4-6-13.5-13.7-13.5c-7.7,0-13.7,6-13.7,13.5v18.9c0,1.7-1.1,3.9-3.9,3.9c-2.8,0-3.9-2.2-3.9-3.9V52h-9.7v7.4
			c0,7.4,6.3,13.5,14,13.5C40.4,72.9,46.2,66.9,46.2,59.5z"/>
		<path id="XMLID_17_" class="st1" d="M71.6,59.5c0,1.7-1.1,3.9-4,3.9c-2.9,0-4-2.1-4-3.9v-7.5l-5.8,2l-3.8-2v7.8
			c0,7.4,5.5,13.2,13.2,13.2c7.7,0,14-6,14-13.5v-7.5h-9.6V59.5z"/>
	</g>
</g>
</svg>
