<!-- Generator: Adobe Illustrator 19.0.0, SVG Export Plug-In  -->
<svg version="1.1"
	 xmlns="http://www.w3.org/2000/svg" xmlns:xlink="http://www.w3.org/1999/xlink" xmlns:a="http://ns.adobe.com/AdobeSVGViewerExtensions/3.0/"
	 x="0px" y="0px" width="100px" height="100px" viewBox="0 0 100 100" style="enable-background:new 0 0 100 100;"
	 xml:space="preserve">
<style type="text/css">
	.st0{fill:#00ABE3;}
	.st1{fill:#FFFFFF;}
</style>
<defs>
</defs>
<g id="XMLID_15_">
	<path id="XMLID_22_" class="st0" d="M100,50c0,27.6-22.4,50-50,50C22.4,100,0,77.6,0,50C0,22.4,22.4,0,50,0C77.6,0,100,22.4,100,50
		z"/>
	<g id="XMLID_20_">
		<path id="XMLID_21_" class="st1" d="M79.5,25.9c-2.5,1.4-5.2,2.5-8.1,3.1c-2.3-2.5-5.7-4-9.4-4c-7.1,0-12.8,5.7-12.8,12.6
			c0,1,0.1,2,0.3,2.9C38.9,40,29.4,34.9,23.1,27.3c-1.1,1.9-1.7,4-1.7,6.3c0,4.4,2.3,8.2,5.7,10.5c-2.1-0.1-4.1-0.6-5.8-1.6
			c0,0.1,0,0.1,0,0.2c0,6.1,4.4,11.2,10.3,12.4c-1.1,0.3-2.2,0.4-3.4,0.4c-0.8,0-1.6-0.1-2.4-0.2c1.6,5,6.4,8.7,12,8.8
			c-4.4,3.4-9.9,5.4-15.9,5.4c-1,0-2.1-0.1-3.1-0.2c5.7,3.6,12.4,5.7,19.7,5.7C62,75,74.9,55.8,74.9,39.1c0-0.5,0-1.1,0-1.6
			c2.5-1.8,4.7-4,6.4-6.5c-2.3,1-4.8,1.7-7.4,2C76.5,31.3,78.6,28.9,79.5,25.9z"/>
	</g>
	<g id="XMLID_18_">
		<path id="XMLID_19_" class="st1" d="M79.5,25.9c-2.5,1.4-5.2,2.5-8.1,3.1c-2.3-2.5-5.7-4-9.4-4c-7.1,0-12.8,5.7-12.8,12.6
			c0,1,0.1,2,0.3,2.9C38.9,40,29.4,34.9,23.1,27.3c-1.1,1.9-1.7,4-1.7,6.3c0,4.4,2.3,8.2,5.7,10.5c-2.1-0.1-4.1-0.6-5.8-1.6
			c0,0.1,0,0.1,0,0.2c0,6.1,4.4,11.2,10.3,12.4c-1.1,0.3-2.2,0.4-3.4,0.4c-0.8,0-1.6-0.1-2.4-0.2c1.6,5,6.4,8.7,12,8.8
			c-4.4,3.4-9.9,5.4-15.9,5.4c-1,0-2.1-0.1-3.1-0.2c5.7,3.6,12.4,5.7,19.7,5.7C62,75,74.9,55.8,74.9,39.1c0-0.5,0-1.1,0-1.6
			c2.5-1.8,4.7-4,6.4-6.5c-2.3,1-4.8,1.7-7.4,2C76.5,31.3,78.6,28.9,79.5,25.9z"/>
	</g>
	<g id="XMLID_16_">
		<path id="XMLID_17_" class="st1" d="M79.5,25.9c-2.5,1.4-5.2,2.5-8.1,3.1c-2.3-2.5-5.7-4-9.4-4c-7.1,0-12.8,5.7-12.8,12.6
			c0,1,0.1,2,0.3,2.9C38.9,40,29.4,34.9,23.1,27.3c-1.1,1.9-1.7,4-1.7,6.3c0,4.4,2.3,8.2,5.7,10.5c-2.1-0.1-4.1-0.6-5.8-1.6
			c0,0.1,0,0.1,0,0.2c0,6.1,4.4,11.2,10.3,12.4c-1.1,0.3-2.2,0.4-3.4,0.4c-0.8,0-1.6-0.1-2.4-0.2c1.6,5,6.4,8.7,12,8.8
			c-4.4,3.4-9.9,5.4-15.9,5.4c-1,0-2.1-0.1-3.1-0.2c5.7,3.6,12.4,5.7,19.7,5.7C62,75,74.9,55.8,74.9,39.1c0-0.5,0-1.1,0-1.6
			c2.5-1.8,4.7-4,6.4-6.5c-2.3,1-4.8,1.7-7.4,2C76.5,31.3,78.6,28.9,79.5,25.9z"/>
	</g>
</g>
</svg>
